nColumns=19
nRows=81
DataType=double
version=3
OpenSimVersion=4.1
endheader
time	ground_force_calcn_l_vx	ground_force_calcn_l_vy	ground_force_calcn_l_vz	ground_force_calcn_l_px	ground_force_calcn_l_py	ground_force_calcn_l_pz	ground_force_calcn_l_mx	ground_force_calcn_l_my	ground_force_calcn_l_mz	ground_force_calcn_r_vx	ground_force_calcn_r_vy	ground_force_calcn_r_vz	ground_force_calcn_r_px	ground_force_calcn_r_py	ground_force_calcn_r_pz	ground_force_calcn_r_mx	ground_force_calcn_r_my	ground_force_calcn_r_mz
5.575	-84.831	668.519	-40.9085	-0.0533136	-5.83359e-18	0.00595497	1.06646	-8.40437	0.514287	-2.64444	110.085	-5.83954	-0.454995	-5.11413e-17	-0.106595	0.0171139	-0.712434	0.0377915
5.58499	-88.632	645.549	-38.2622	-0.0469199	-5.12732e-18	0.00267354	1.10224	-8.02815	0.475835	2.63916	140.388	-5.22972	-0.442502	-4.95408e-17	-0.105891	-0.00345649	-0.183866	0.00684934
5.59498	-91.4843	618.6	-35.2885	-0.0408035	-4.45267e-18	-0.000639001	1.11836	-7.56212	0.431387	9.50462	173.736	-3.88228	-0.431281	-4.8118e-17	-0.105494	0.0313925	0.573825	-0.0128227
5.60497	-93.2037	587.712	-32.0799	-0.0349576	-3.80916e-18	-0.00389741	1.10601	-6.97416	0.38068	17.6833	209.702	-1.79408	-0.42132	-4.6871e-17	-0.10543	0.129245	1.53269	-0.0131127
5.61496	-93.6824	553.061	-28.6482	-0.0293703	-3.19457e-18	-0.00685793	1.07816	-6.365	0.329703	26.6958	247.665	0.997637	-0.412378	-4.57701e-17	-0.105855	0.288147	2.67322	0.0107682
5.62496	-92.7851	515.008	-25.056	-0.0241637	-2.62264e-18	-0.00937995	1.03188	-5.72751	0.278653	36.1171	286.736	4.44887	-0.404197	-4.47823e-17	-0.106794	0.493694	3.91947	0.0608128
5.63495	-90.3505	474.024	-21.4157	-0.0194751	-2.10898e-18	-0.011355	0.958096	-5.02664	0.227096	45.4538	325.906	8.43188	-0.396711	-4.38955e-17	-0.108183	0.725039	5.19856	0.134498
5.64494	-86.4571	430.742	-17.7892	-0.0153554	-1.65865e-18	-0.0125132	0.870054	-4.33473	0.17902	54.2397	364.303	12.7648	-0.389722	-4.30827e-17	-0.109918	0.971328	6.52395	0.228593
5.65493	-81.1576	385.951	-14.2491	-0.0118051	-1.27161e-18	-0.0125261	0.772697	-3.67461	0.135664	62.0933	401.305	17.3126	-0.382813	-4.22928e-17	-0.111945	1.20938	7.81613	0.337195
5.66492	-74.5007	340.601	-10.9024	-0.00894223	-9.61383e-19	-0.0111922	0.65836	-3.00987	0.0963437	68.8152	436.354	21.8935	-0.375739	-4.14955e-17	-0.114141	1.41883	8.9967	0.451397
5.67491	-66.7033	295.623	-7.88618	-0.00700327	-7.53582e-19	-0.00835483	0.539117	-2.38932	0.0637386	74.1911	469.091	26.2849	-0.368552	-4.06936e-17	-0.116378	1.59132	10.0615	0.563784
5.6849	-58.1215	251.916	-5.33756	-0.00614685	-6.64983e-19	-0.00380555	0.431276	-1.86928	0.039606	78.1061	499.585	30.3523	-0.361294	-3.98894e-17	-0.118585	1.71739	10.9849	0.667384
5.69489	-49.0979	210.392	-3.34208	-0.00643046	-7.01932e-19	0.00262774	0.333882	-1.43074	0.0227272	80.6726	528.074	34.0336	-0.35387	-3.90708e-17	-0.120718	1.79444	11.7462	0.757025
5.70488	-40.0295	171.929	-1.94368	-0.00796312	-8.76409e-19	0.0108205	0.244778	-1.05133	0.0118854	81.9213	554.651	37.2897	-0.346294	-3.82379e-17	-0.122749	1.8225	12.3393	0.829584
5.71487	-31.4082	137.129	-1.10578	-0.0108839	-1.20324e-18	0.0205507	0.179596	-0.784125	0.00632302	81.8755	579.339	40.0987	-0.338664	-3.74004e-17	-0.12468	1.80535	12.7744	0.884174
5.72487	-23.592	106.34	-0.679139	-0.0150113	-1.66241e-18	0.0318376	0.138924	-0.626192	0.00399916	80.721	602.197	42.5232	-0.331041	-3.65646e-17	-0.126517	1.74678	13.0314	0.920192
5.73486	-16.806	79.7368	-0.480724	-0.0197642	-2.19008e-18	0.0443483	0.105143	-0.498857	0.00300755	78.6525	623.221	44.7095	-0.323396	-3.57263e-17	-0.128273	1.65308	13.0985	0.939679
5.74485	-11.249	57.3839	-0.378099	-0.0245927	-2.72498e-18	0.0574089	0.0824509	-0.420602	0.00277132	75.7875	642.201	46.7496	-0.315742	-3.4886e-17	-0.129965	1.53841	13.0361	0.94897
5.75484	-6.97794	39.1385	-0.319087	-0.0291776	-3.23035e-18	0.0701527	0.0694879	-0.38975	0.00317754	72.3049	658.931	48.6598	-0.308091	-3.40449e-17	-0.131603	1.41105	12.8592	0.949612
5.76483	-3.8971	24.7591	-0.274534	-0.033376	-3.68858e-18	0.0819111	0.0535111	-0.339968	0.00376963	68.4515	673.29	50.43	-0.300466	-3.32056e-17	-0.133164	1.2804	12.594	0.943305
5.77482	-1.87475	13.9699	-0.200448	-0.0371529	-4.09619e-18	0.0923667	0.0336774	-0.250949	0.00360077	64.3557	685.178	52.0319	-0.292927	-3.23744e-17	-0.134637	1.15455	12.2921	0.933456
5.78481	-0.703212	6.51863	-0.117647	-0.0405768	-4.45923e-18	0.10157	0.0160357	-0.148648	0.00268276	60.1203	694.481	53.441	-0.285549	-3.15603e-17	-0.136002	1.03293	11.9319	0.918172
5.7948	0	0	0	0	-3.07734e-17	0	0	0	0	55.8936	701.185	54.5797	-0.278411	-3.07734e-17	-0.137233	0.913891	11.4648	0.892408
5.80479	0	0	0	0	-3.00192e-17	0	0	0	0	51.7302	705.417	55.3318	-0.271567	-3.00192e-17	-0.138308	0.803169	10.9524	0.859089
5.81478	0	0	0	0	-2.92987e-17	0	0	0	0	47.5984	707.323	55.625	-0.265025	-2.92987e-17	-0.139226	0.702792	10.4437	0.821306
5.82478	0	0	0	0	-2.86111e-17	0	0	0	0	43.5948	706.944	55.4656	-0.258774	-2.86111e-17	-0.139993	0.609908	9.89043	0.775986
5.83477	0	0	0	0	-2.79539e-17	0	0	0	0	39.6439	704.436	54.9202	-0.252788	-2.79539e-17	-0.140646	0.52063	9.25113	0.721249
5.84476	0	0	0	0	-2.73221e-17	0	0	0	0	35.6872	700.047	54.0482	-0.247025	-2.73221e-17	-0.141225	0.437366	8.57945	0.66239
5.85475	0	0	0	0	-2.67104e-17	0	0	0	0	31.6997	694.042	52.8982	-0.241438	-2.67104e-17	-0.141762	0.35932	7.86705	0.599607
5.86474	0	0	0	0	-2.61115e-17	0	0	0	0	27.7208	686.737	51.5432	-0.23596	-2.61115e-17	-0.14228	0.286737	7.10343	0.533149
5.87473	0	0	0	0	-2.55261e-17	0	0	0	0	23.6674	678.516	50.0961	-0.230595	-2.55261e-17	-0.142813	0.218221	6.25613	0.461902
5.88472	0	0	0	0	-2.49474e-17	0	0	0	0	19.5665	669.884	48.6333	-0.225285	-2.49474e-17	-0.143368	0.156618	5.36202	0.38928
5.89471	0	0	0	0	-2.43696e-17	0	0	0	0	15.4831	661.335	47.1651	-0.219977	-2.43696e-17	-0.143924	0.103334	4.41372	0.314778
5.9047	0	0	0	0	-2.37908e-17	0	0	0	0	11.3785	653.248	45.6856	-0.214656	-2.37908e-17	-0.144476	0.0595884	3.421	0.239251
5.9147	0	0	0	0	-2.32084e-17	0	0	0	0	7.26592	645.997	44.2109	-0.209302	-2.32084e-17	-0.14499	0.0273721	2.4336	0.166551
5.92469	0	0	0	0	-2.26179e-17	0	0	0	0	3.17167	639.961	42.8264	-0.203872	-2.26179e-17	-0.145432	0.00693992	1.40029	0.0937081
5.93468	0	0	0	0	-2.20138e-17	0	0	0	0	-0.848784	635.326	41.5229	-0.198322	-2.20138e-17	-0.145764	-0.000479132	0.358637	0.0234394
5.94467	0	0	0	0	-2.13945e-17	0	0	0	0	-4.87953	632.141	40.2637	-0.192639	-2.13945e-17	-0.145988	0.00513963	-0.665837	-0.04241
5.95466	0	0	0	0	-2.07517e-17	0	0	0	0	-8.86424	630.473	39.0809	-0.186753	-2.07517e-17	-0.146085	0.0232844	-1.65611	-0.102657
5.96465	0	0	0	0	-2.00812e-17	0	0	0	0	-12.796	630.41	38.0064	-0.180629	-2.00812e-17	-0.14606	0.052541	-2.5885	-0.156056
5.97464	0	0	0	0	-1.93883e-17	0	0	0	0	-16.7109	631.856	37.025	-0.174317	-1.93883e-17	-0.145919	0.0909253	-3.43797	-0.201456
5.98463	0	0	0	0	-1.86825e-17	0	0	0	0	-20.6124	634.621	36.1423	-0.1679	-1.86825e-17	-0.145658	0.136828	-4.21271	-0.239918
5.99462	0	0	0	0	-1.79708e-17	0	0	0	0	-24.4685	638.551	35.3711	-0.16144	-1.79708e-17	-0.145281	0.188779	-4.92653	-0.272895
6.00461	0	0	0	0	-1.72488e-17	0	0	0	0	-28.2526	643.485	34.7519	-0.154897	-1.72488e-17	-0.14482	0.244097	-5.55958	-0.300249
6.01461	0	0	0	0	-1.65192e-17	0	0	0	0	-31.9727	649.085	34.3012	-0.148295	-1.65192e-17	-0.144316	0.300731	-6.10521	-0.322632
6.0246	0	0	0	0	-1.57886e-17	0	0	0	0	-35.5511	654.971	34.0783	-0.14169	-1.57886e-17	-0.143803	0.355981	-6.55837	-0.341234
6.03459	0	0	0	0	-1.5062e-17	0	0	0	0	-39.0106	660.872	34.1629	-0.135126	-1.5062e-17	-0.143327	0.407988	-6.91165	-0.357289
6.04458	0	0	0	0	-1.43334e-17	0	0	0	0	-42.3296	666.579	34.6437	-0.128548	-1.43334e-17	-0.142958	0.452176	-7.12057	-0.370073
6.05457	0	0	0	0	-1.36041e-17	0	0	0	0	-45.4517	671.782	35.5661	-0.121966	-1.36041e-17	-0.142728	0.488225	-7.21602	-0.382037
6.06456	0	0	0	0	-1.28881e-17	0	0	0	0	-48.3495	676.242	36.9438	-0.115505	-1.28881e-17	-0.14268	0.514189	-7.19172	-0.392891
6.07455	0	0	0	0	-1.22019e-17	0	0	0	0	-51.0089	679.947	38.7398	-0.109314	-1.22019e-17	-0.142825	0.528485	-7.04468	-0.401369
6.08454	0	0	0	0	-1.15522e-17	0	0	0	0	-53.3669	682.971	40.8811	-0.103458	-1.15522e-17	-0.143156	0.530553	-6.78984	-0.406425
6.09453	0	0	0	0	-1.09427e-17	0	0	0	0	-55.3845	685.346	43.2284	-0.0979689	-1.09427e-17	-0.143638	0.521841	-6.45743	-0.407304
6.10453	0	0	0	0	-1.03861e-17	0	0	0	0	-57.136	687.229	45.6493	-0.0929622	-1.03861e-17	-0.144242	0.505602	-6.08135	-0.403955
6.11452	0	0	0	0	-9.89164e-18	0	0	0	0	-58.6243	688.931	48.0376	-0.0885217	-9.89164e-18	-0.144943	0.482795	-5.67363	-0.395609
6.12451	0	0	0	0	-9.45799e-18	0	0	0	0	-59.8708	690.818	50.3456	-0.0846313	-9.45799e-18	-0.145707	0.458988	-5.29602	-0.385965
6.1345	0	0	0	0	-9.07546e-18	0	0	0	0	-60.8799	693.123	52.4752	-0.0812035	-9.07546e-18	-0.146507	0.435014	-4.95268	-0.374959
6.14449	0	0	0	0	-8.74234e-18	0	0	0	0	-61.742	696.029	54.3928	-0.0782186	-8.74234e-18	-0.147324	0.415077	-4.67925	-0.36567
6.15448	0	0	0	0	-8.45313e-18	0	0	0	0	-62.4624	699.769	56.0863	-0.0756258	-8.45313e-18	-0.148137	0.399994	-4.48115	-0.359163
6.16447	0	0	0	0	-8.19877e-18	0	0	0	0	-63.1103	704.432	57.5735	-0.0733423	-8.19877e-18	-0.148935	0.390504	-4.35877	-0.356244
6.17446	0	0	0	0	-7.96942e-18	0	0	0	0	-63.7757	709.856	58.885	-0.0712749	-7.96942e-18	-0.149705	0.389969	-4.34055	-0.360064
6.18445	0	0	0	0	-7.75905e-18	0	0	0	0	-64.5247	715.822	60.0339	-0.0693669	-7.75905e-18	-0.150443	0.400444	-4.44244	-0.372574
6.19444	0	0	0	0	-7.56087e-18	0	0	0	0	-65.4909	722.104	61.0078	-0.0675561	-7.56087e-18	-0.151157	0.423334	-4.66769	-0.394354
6.20444	0	0	0	0	-7.36468e-18	0	0	0	0	-66.8116	728.361	61.7913	-0.0657518	-7.36468e-18	-0.151848	0.459395	-5.00819	-0.424876
6.21443	0	0	0	0	-7.15556e-18	0	0	0	0	-68.6129	733.986	62.3869	-0.0638152	-7.15556e-18	-0.152518	0.513719	-5.4955	-0.467103
6.22442	0	0	0	0	-6.91983e-18	0	0	0	0	-70.9695	738.32	62.8296	-0.0616171	-6.91983e-18	-0.153164	0.593111	-6.17034	-0.525084
6.23441	-0.272688	5.1602	0.474962	-0.372289	-4.11584e-17	0.0668062	-0.00464339	0.0878692	0.00808777	-73.953	740.712	63.0709	-0.0590595	-6.6464e-18	-0.1538	0.699968	-7.01086	-0.596968
6.2444	-0.523793	15.772	1.23839	-0.369153	-4.08649e-17	0.0669061	-0.00717001	0.215897	0.0169518	-77.5017	740.369	63.0472	-0.0560538	-6.32502e-18	-0.154416	0.83448	-7.97174	-0.678845
6.25439	-0.456334	32.0753	2.09904	-0.365996	-4.0558e-17	0.067329	-0.00475643	0.334326	0.0218786	-81.4693	736.336	62.7005	-0.0525774	-5.95342e-18	-0.154986	1.00098	-9.04708	-0.770376
6.26438	0.231894	54.1531	2.85337	-0.362812	-4.02381e-17	0.0684123	0.00167298	0.390682	0.0205853	-85.6647	727.73	61.9641	-0.0486883	-5.53763e-18	-0.155486	1.19744	-10.1723	-0.866144
6.27437	1.84764	81.7685	3.27687	-0.359667	-3.99132e-17	0.0705766	0.00743648	0.329106	0.0131889	-89.8236	713.878	60.7339	-0.0444483	-5.08388e-18	-0.155881	1.41826	-11.2717	-0.958949
6.28436	4.86193	114.386	3.08841	-0.356727	-3.9602e-17	0.0743188	0.00433533	0.101997	0.0027539	-93.568	694.246	58.8834	-0.0398858	-4.59449e-18	-0.156116	1.65223	-12.2591	-1.03977
6.29435	9.52727	151.281	2.02694	-0.354286	-3.9337e-17	0.0793483	-0.0214964	-0.341336	-0.00457338	-96.4807	668.455	56.3287	-0.0349957	-4.068e-18	-0.156139	1.88414	-13.0541	-1.10003
6.30435	15.791	191.65	-0.0465071	-0.35223	-3.91053e-17	0.0854341	-0.0892833	-1.0836	0.000262953	-98.3059	636.431	53.0715	-0.0298178	-3.50859e-18	-0.155892	2.10395	-13.621	-1.13584
6.31434	23.3549	234.484	-3.21402	-0.35063	-3.89138e-17	0.092175	-0.214933	-2.15794	0.0295783	-98.6842	598.528	49.1345	-0.0243416	-2.91347e-18	-0.155321	2.2848	-13.8575	-1.13759
6.32433	31.8832	278.729	-7.47753	-0.349457	-3.87602e-17	0.0990331	-0.39901	-3.48823	0.0935795	-97.3461	555.28	44.6182	-0.0185041	-2.27516e-18	-0.154313	2.40936	-13.7434	-1.10432
6.33432	40.9022	323.39	-12.679	-0.348465	-3.86197e-17	0.105581	-0.636352	-5.03126	0.197259	-94.1352	507.405	39.6086	-0.0122058	-1.58134e-18	-0.152808	2.45725	-13.245	-1.03392
6.34431	49.8859	367.59	-18.5589	-0.347229	-3.84477e-17	0.111553	-0.911097	-6.71351	0.338952	-89.054	455.979	34.2875	-0.00535891	-8.21753e-19	-0.150746	2.41927	-12.3873	-0.931467
6.3543	58.3676	410.494	-24.824	-0.345556	-3.8227e-17	0.116763	-1.19524	-8.406	0.50834	-82.1586	402.341	28.9294	0.00209774	9.9592e-21	-0.148053	2.29445	-11.2362	-0.807915
6.36429	65.953	451.432	-31.1373	-0.343506	-3.79668e-17	0.121073	-1.46464	-10.0251	0.691478	-73.6265	347.916	23.766	0.0101199	9.09646e-19	-0.144693	2.07652	-9.81242	-0.670282
6.37428	72.3616	490.012	-37.2334	-0.341078	-3.76688e-17	0.124428	-1.70254	-11.5291	0.876039	-63.898	294.144	19.0459	0.0185212	1.85559e-18	-0.140649	1.78373	-8.21111	-0.531672
